<svg width="24" height="24" viewBox="0 0 24 24" fill="none" xmlns="http://www.w3.org/2000/svg">
<path d="M11.9999 22.6667C17.891 22.6667 22.6666 17.8911 22.6666 12C22.6666 6.109 17.891 1.33337 11.9999 1.33337C6.10888 1.33337 1.33325 6.109 1.33325 12C1.33325 17.8911 6.10888 22.6667 11.9999 22.6667Z" fill="url(#paint0_linear)"/>
<path d="M11.9999 20.2963C16.5818 20.2963 20.2962 16.5819 20.2962 12C20.2962 7.41811 16.5818 3.70374 11.9999 3.70374C7.41799 3.70374 3.70361 7.41811 3.70361 12C3.70361 16.5819 7.41799 20.2963 11.9999 20.2963Z" fill="url(#paint1_linear)"/>
<path d="M14.8445 6.66675H9.15561C8.80005 6.66675 8.32598 6.90379 8.08894 7.14082L5.71857 10.2223C5.36302 10.6964 5.36302 11.4075 5.71857 11.8816L10.9334 18.0445C11.4075 18.6371 12.3556 18.6371 12.9482 18.0445L18.163 11.8816C18.5186 11.4075 18.6371 10.6964 18.163 10.2223L15.7926 7.14082C15.4768 6.75537 15.2001 6.66675 14.8445 6.66675Z" fill="url(#paint2_linear)"/>
<path d="M13.4223 6.66675H10.5779C10.3408 6.66675 10.2223 6.90379 9.98528 7.14082L8.80009 10.2223C8.56306 10.6964 8.56306 11.4075 8.80009 11.8816L11.4075 18.0445C11.6445 18.6371 12.1186 18.6371 12.3556 18.0445L14.9631 11.8816C15.2001 11.4075 15.2001 10.6964 14.9631 10.2223L13.7779 7.14082C13.7779 6.78527 13.6594 6.66675 13.4223 6.66675Z" fill="url(#paint3_linear)"/>
<path opacity="0.4" d="M15.7927 7.14082C15.5556 6.78527 15.2001 6.66675 14.8445 6.66675H9.15563C8.80007 6.66675 8.326 6.90379 8.08896 7.14082L5.71859 10.2223C5.48155 10.5779 5.36304 10.9334 5.48155 11.289H18.4757C18.4757 10.5103 18.4001 10.5779 18.163 10.2223C16.7408 8.40502 15.9507 7.37786 15.7927 7.14082Z" fill="white"/>
<path opacity="0.3" d="M15.7926 7.14082C15.5555 6.78527 15.2 6.66675 14.8444 6.66675H10.9333C10.8148 7.14082 10.6963 7.73341 10.6963 8.32601C10.6963 11.4075 13.1852 13.8964 16.2667 13.8964C16.3852 13.8964 16.5037 13.8964 16.5037 13.8964L18.163 11.8816C18.5185 11.4075 18.637 10.6964 18.163 10.2223C16.7407 8.40502 15.9506 7.37786 15.7926 7.14082Z" fill="white"/>
<path d="M16.1482 11.7631L15.6741 12.2372C15.4371 12.4742 14.963 12.4742 14.726 12.2372L14.3704 11.7631C14.1334 11.526 14.1334 11.052 14.3704 10.8149L14.8445 10.3409C15.0815 10.1038 15.5556 10.1038 15.7926 10.3409L16.2667 10.8149C16.3852 11.052 16.3852 11.526 16.1482 11.7631Z" fill="white"/>
<defs>
<linearGradient id="paint0_linear" x1="12.0043" y1="1.45894" x2="12.0043" y2="22.6667" gradientUnits="userSpaceOnUse">
<stop stop-color="#94E6FC"/>
<stop offset="1" stop-color="#18A5F0"/>
</linearGradient>
<linearGradient id="paint1_linear" x1="11.9999" y1="1.42338" x2="11.9999" y2="20.6922" gradientUnits="userSpaceOnUse">
<stop stop-color="white"/>
<stop offset="1" stop-color="#C4F4FF"/>
</linearGradient>
<linearGradient id="paint2_linear" x1="12.0001" y1="7.07706" x2="12.0001" y2="18.306" gradientUnits="userSpaceOnUse">
<stop stop-color="#00C5FA"/>
<stop offset="0.9984" stop-color="#0070E6"/>
</linearGradient>
<linearGradient id="paint3_linear" x1="12.0001" y1="7.07706" x2="12.0001" y2="18.306" gradientUnits="userSpaceOnUse">
<stop stop-color="#8AF2FF"/>
<stop offset="1" stop-color="#00ABFA"/>
</linearGradient>
</defs>
</svg>
